<svg width="26" height="26" viewBox="0 0 26 26" fill="none" xmlns="http://www.w3.org/2000/svg">
<path d="M13 25C19.6274 25 25 19.6274 25 13C25 6.37258 19.6274 1 13 1C6.37258 1 1 6.37258 1 13C1 19.6274 6.37258 25 13 25Z" stroke="#CECFD4" stroke-width="2" stroke-linecap="round" stroke-linejoin="round"/>
<path d="M13 21C13.8284 21 14.5 20.3284 14.5 19.5C14.5 18.6716 13.8284 18 13 18C12.1716 18 11.5 18.6716 11.5 19.5C11.5 20.3284 12.1716 21 13 21Z" fill="#CECFD4"/>
<path d="M13 15.0006V14.0006C13.6922 14.0006 14.3689 13.7953 14.9445 13.4107C15.5201 13.0261 15.9687 12.4795 16.2336 11.8399C16.4985 11.2004 16.5678 10.4967 16.4327 9.81773C16.2977 9.1388 15.9644 8.51516 15.4749 8.02568C14.9854 7.53619 14.3618 7.20285 13.6828 7.0678C13.0039 6.93275 12.3001 7.00207 11.6606 7.26697C11.0211 7.53188 10.4744 7.98048 10.0899 8.55606C9.70527 9.13163 9.5 9.80832 9.5 10.5006" stroke="#CECFD4" stroke-width="2" stroke-linecap="round" stroke-linejoin="round"/>
</svg>
